<svg width="6" height="10" viewBox="0 0 6 10" fill="none" xmlns="http://www.w3.org/2000/svg">
  <path d="M0.273477 4.35124L4.66943 0.215047C5.18834 -0.273086 6 0.12363 6 0.864453L6 9.13683C6.00013 9.30263 5.95582 9.46495 5.87236 9.60437C5.78891 9.74378 5.66985 9.85437 5.52945 9.92289C5.38905 9.99142 5.23326 10.015 5.08073 9.99074C4.9282 9.9665 4.78539 9.8955 4.66942 9.78624L0.274279 5.65005C0.188133 5.5691 0.119089 5.46927 0.0717818 5.35726C0.0244748 5.24526 -2.23962e-07 5.12366 -2.18585e-07 5.00064C-2.13208e-07 4.87763 0.0244748 4.75603 0.0717818 4.64402C0.119089 4.53202 0.188133 4.43219 0.274279 4.35124L0.273477 4.35124Z" fill="white"/>
</svg>
